<svg xmlns="http://www.w3.org/2000/svg" viewBox="0 0 512 512">
    <rect width="512" height="512" rx="100" fill="#3b82f6"/>
    <path fill="#ffffff" d="M256 96c-88.4 0-160 71.6-160 160s71.6 160 160 160 160-71.6 160-160c0-88.4-71.6-160-160-160zm0 288c-70.7 0-128-57.3-128-128s57.3-128 128-128 128 57.3 128 128-57.3 128-128 128z"/>
    <path fill="#ffffff" d="M256 160c-53 0-96 43-96 96s43 96 96 96 96-43 96-96-43-96-96-96zm0 160c-35.3 0-64-28.7-64-64s28.7-64 64-64 64 28.7 64 64-28.7 64-64 64z"/>
</svg>
